<?xml version="1.0" encoding="utf-8"?>
<!-- Generator: Adobe Illustrator 15.0.0, SVG Export Plug-In . SVG Version: 6.00 Build 0)  -->
<!DOCTYPE svg PUBLIC "-//W3C//DTD SVG 1.1//EN" "http://www.w3.org/Graphics/SVG/1.1/DTD/svg11.dtd">
<svg version="1.1" id="Layer_1" xmlns="http://www.w3.org/2000/svg" xmlns:xlink="http://www.w3.org/1999/xlink" x="0px" y="0px"
	 width="250px" height="250px" viewBox="0 0 250 250" enable-background="new 0 0 250 250" xml:space="preserve">
<g>
	<circle fill="#F38E19" cx="125" cy="125" r="125"/>
	<g>
		<path fill="#FFFFFF" d="M26.322,93.082h6.001c0.047,0.847,0.094,1.6,0.142,2.258c0.046,0.66,0.093,1.285,0.141,1.871
			c0.046,0.59,0.094,1.166,0.142,1.732c0.045,0.564,0.093,1.176,0.142,1.835c1.13-2.542,2.553-4.579,4.272-6.108
			c1.719-1.528,4.082-2.317,7.097-2.366c2.963,0,5.329,0.742,7.095,2.225c1.765,1.482,2.812,3.424,3.142,5.824
			c0.565-1.176,1.202-2.258,1.906-3.249c0.707-0.987,1.495-1.836,2.367-2.542c0.869-0.704,1.871-1.259,3-1.659
			c1.13-0.399,2.445-0.6,3.955-0.6c3.105,0,5.576,0.837,7.415,2.507c1.833,1.671,2.798,3.848,2.894,6.532v21.746h-6.777V104.52
			c-0.095-1.459-0.589-2.719-1.483-3.777c-0.895-1.061-2.378-1.636-4.45-1.731c-2.778,0-4.931,0.908-6.461,2.719
			c-1.528,1.813-2.293,4.132-2.293,6.955v14.404h-6.779V104.52c-0.094-1.459-0.599-2.719-1.516-3.777
			c-0.92-1.061-2.392-1.636-4.414-1.731c-2.781,0-4.934,0.908-6.463,2.719c-1.529,1.813-2.294,4.107-2.294,6.885v14.474h-6.778
			V93.082z"/>
		<path fill="#FFFFFF" d="M82.244,108.404c0-2.166,0.425-4.225,1.271-6.18c0.848-1.951,1.988-3.658,3.425-5.12
			c1.436-1.457,3.107-2.622,5.014-3.494c1.906-0.87,3.919-1.306,6.039-1.306c1.41,0,2.681,0.178,3.813,0.529
			c1.129,0.354,2.106,0.766,2.93,1.235c0.823,0.471,1.47,0.955,1.941,1.448c0.47,0.495,0.776,0.884,0.917,1.165l0.284-3.6h6.568
			v30.007h-6.852v-1.977c0-0.235,0.011-0.459,0.036-0.671c0.024-0.21,0.036-0.363,0.036-0.458c-0.189,0.237-0.518,0.578-0.988,1.025
			c-0.472,0.447-1.107,0.882-1.909,1.305c-0.799,0.424-1.751,0.787-2.858,1.096c-1.106,0.305-2.389,0.458-3.846,0.458
			c-2.308,0-4.427-0.423-6.355-1.271c-1.932-0.848-3.604-1.977-5.014-3.39c-1.413-1.411-2.508-3.047-3.284-4.907
			C82.633,112.44,82.244,110.475,82.244,108.404z M89.095,107.979c0,1.319,0.221,2.542,0.67,3.671
			c0.446,1.131,1.081,2.108,1.905,2.931c0.824,0.824,1.8,1.471,2.931,1.942c1.129,0.469,2.375,0.705,3.742,0.705
			c1.364,0,2.611-0.236,3.742-0.705c1.13-0.472,2.106-1.131,2.932-1.978c0.822-0.849,1.458-1.835,1.905-2.966
			c0.447-1.131,0.67-2.331,0.67-3.602c0-1.271-0.224-2.458-0.67-3.566c-0.447-1.105-1.083-2.06-1.905-2.86
			c-0.825-0.8-1.802-1.436-2.932-1.907c-1.131-0.47-2.378-0.704-3.742-0.704c-1.367,0-2.613,0.224-3.742,0.668
			c-1.131,0.45-2.107,1.085-2.931,1.907c-0.824,0.825-1.459,1.791-1.905,2.896C89.316,105.521,89.095,106.708,89.095,107.979z"/>
		<path fill="#FFFFFF" d="M154.904,108.191c0,2.259-0.378,4.343-1.131,6.249c-0.753,1.907-1.825,3.566-3.211,4.979
			c-1.391,1.413-3.049,2.506-4.98,3.284c-1.931,0.777-4.048,1.164-6.354,1.164s-4.343-0.436-6.107-1.307
			c-1.766-0.87-2.979-1.799-3.637-2.787c0,0.188,0.011,0.363,0.035,0.529c0.024,0.163,0.037,0.365,0.037,0.6v35.695h-6.779V93.082
			h6.496c0,0.66,0.047,1.317,0.142,1.977c0.093,0.66,0.142,1.271,0.142,1.835c0.376-0.469,0.857-0.977,1.446-1.519
			c0.589-0.54,1.309-1.034,2.154-1.481c0.847-0.447,1.801-0.824,2.859-1.131c1.059-0.306,2.225-0.459,3.497-0.459
			c2.305,0,4.402,0.366,6.283,1.094c1.884,0.731,3.497,1.792,4.837,3.178c1.342,1.39,2.389,3.062,3.142,5.013
			C154.526,103.543,154.904,105.744,154.904,108.191z M147.56,108.05c0-2.635-0.766-4.812-2.294-6.533
			c-1.532-1.716-3.66-2.575-6.39-2.575c-1.367,0-2.613,0.224-3.742,0.668c-1.131,0.45-2.108,1.085-2.933,1.907
			c-0.823,0.825-1.472,1.791-1.941,2.896c-0.469,1.107-0.705,2.294-0.705,3.566c0,1.319,0.235,2.542,0.705,3.671
			c0.47,1.131,1.119,2.108,1.941,2.931c0.825,0.824,1.801,1.471,2.933,1.942c1.128,0.469,2.375,0.705,3.742,0.705
			c1.364,0,2.589-0.236,3.672-0.705c1.082-0.472,1.988-1.131,2.718-1.978c0.729-0.849,1.293-1.825,1.695-2.933
			C147.361,110.51,147.56,109.322,147.56,108.05z"/>
		<path fill="#FFFFFF" d="M193.527,108.191c0,2.259-0.376,4.343-1.129,6.249c-0.753,1.907-1.826,3.566-3.213,4.979
			c-1.391,1.413-3.049,2.506-4.979,3.284c-1.931,0.777-4.048,1.164-6.353,1.164c-2.308,0-4.345-0.436-6.107-1.307
			c-1.767-0.87-2.978-1.799-3.638-2.787c0,0.188,0.011,0.363,0.035,0.529c0.025,0.163,0.036,0.365,0.036,0.6v16.591h-6.778V93.082
			h6.495c0,0.66,0.048,1.317,0.142,1.977c0.093,0.66,0.142,1.271,0.142,1.835c0.376-0.469,0.856-0.977,1.448-1.519
			c0.587-0.54,1.306-1.034,2.153-1.481c0.848-0.447,1.8-0.824,2.861-1.131c1.058-0.306,2.223-0.459,3.495-0.459
			c2.306,0,4.402,0.366,6.284,1.094c1.881,0.731,3.496,1.792,4.837,3.178c1.342,1.39,2.389,3.062,3.142,5.013
			C193.15,103.543,193.527,105.744,193.527,108.191z M186.185,108.05c0-2.635-0.768-4.812-2.297-6.533
			c-1.529-1.716-3.66-2.575-6.389-2.575c-1.367,0-2.613,0.224-3.742,0.668c-1.131,0.45-2.11,1.085-2.931,1.907
			c-0.825,0.825-1.472,1.791-1.942,2.896c-0.472,1.107-0.706,2.294-0.706,3.566c0,1.319,0.234,2.542,0.706,3.671
			c0.47,1.131,1.117,2.108,1.942,2.931c0.821,0.824,1.8,1.471,2.931,1.942c1.129,0.469,2.375,0.705,3.742,0.705
			c1.364,0,2.588-0.236,3.672-0.705c1.081-0.472,1.987-1.131,2.717-1.978c0.73-0.849,1.294-1.825,1.696-2.933
			C185.983,110.51,186.185,109.322,186.185,108.05z"/>
		<path fill="#FFFFFF" d="M207.65,137.493h-6.779c0.708-1.41,1.365-2.765,1.979-4.058c0.611-1.296,1.222-2.613,1.833-3.955
			c0.612-1.342,1.249-2.719,1.908-4.13c0.659-1.412,1.387-2.943,2.188-4.589c-1.085-2.119-2.201-4.354-3.354-6.708
			c-1.153-2.354-2.318-4.731-3.495-7.132c-1.177-2.401-2.343-4.777-3.494-7.133c-1.156-2.354-2.25-4.589-3.284-6.707h7.343
			c1.789,3.483,3.248,6.401,4.378,8.755c1.129,2.354,2.047,4.331,2.752,5.932c0.708,1.601,1.249,2.906,1.626,3.917
			c0.377,1.014,0.682,1.942,0.916,2.79c0.283-0.848,0.612-1.776,0.99-2.79c0.377-1.012,0.919-2.316,1.623-3.917
			c0.709-1.601,1.625-3.578,2.755-5.932c1.129-2.354,2.588-5.272,4.378-8.755h7.273L207.65,137.493z"/>
	</g>
	<path fill="none" stroke="#FFFFFF" stroke-width="7.6336" stroke-linecap="round" stroke-miterlimit="10" d="M55.489,156.488
		c12.017,26.421,38.645,44.848,69.511,44.848s57.494-18.427,69.511-44.848"/>
</g>
</svg>
